<svg width="26" height="26" viewBox="0 0 26 26" fill="none" xmlns="http://www.w3.org/2000/svg">
<g id="grid-01">
<g id="Icon">
<path d="M20.5833 3.25C21.7799 3.25 22.75 4.20676 22.75 5.38698L22.75 9.03492C22.75 10.2151 21.78 11.1719 20.5833 11.1719H17.3333C16.1367 11.1719 15.1667 10.2151 15.1667 9.03492L15.1667 5.38698C15.1667 4.20676 16.1367 3.25 17.3333 3.25L20.5833 3.25Z" stroke="black" stroke-width="2" stroke-linecap="round" stroke-linejoin="round"/>
<path d="M5.41666 3.25C4.22005 3.25 3.25 4.20676 3.25 5.38698L3.25001 9.03492C3.25001 10.2151 4.22006 11.1719 5.41668 11.1719H8.66667C9.86329 11.1719 10.8333 10.2151 10.8333 9.03492L10.8333 5.38698C10.8333 4.20676 9.86328 3.25 8.66666 3.25L5.41666 3.25Z" stroke="black" stroke-width="2" stroke-linecap="round" stroke-linejoin="round"/>
<path d="M20.5833 14.8281C21.78 14.8281 22.75 15.7849 22.75 16.9651V20.613C22.75 21.7932 21.78 22.75 20.5833 22.75H17.3333C16.1367 22.75 15.1667 21.7932 15.1667 20.613L15.1667 16.9651C15.1667 15.7849 16.1367 14.8281 17.3333 14.8281H20.5833Z" stroke="black" stroke-width="2" stroke-linecap="round" stroke-linejoin="round"/>
<path d="M5.41667 14.8281C4.22006 14.8281 3.25001 15.7849 3.25001 16.9651L3.25001 20.613C3.25001 21.7932 4.22006 22.75 5.41668 22.75H8.66668C9.86329 22.75 10.8333 21.7932 10.8333 20.613L10.8333 16.9651C10.8333 15.7849 9.86329 14.8281 8.66667 14.8281H5.41667Z" stroke="black" stroke-width="2" stroke-linecap="round" stroke-linejoin="round"/>
</g>
</g>
</svg>
