<svg width="20" height="24" viewBox="0 0 20 24" fill="none" xmlns="http://www.w3.org/2000/svg">
<g id="chart-simple-solid 1">
<path id="Vector" d="M7.14286 3.75C7.14286 2.50781 8.10268 1.5 9.28571 1.5H10.7143C11.8973 1.5 12.8571 2.50781 12.8571 3.75V20.25C12.8571 21.4922 11.8973 22.5 10.7143 22.5H9.28571C8.10268 22.5 7.14286 21.4922 7.14286 20.25V3.75ZM0 12.75C0 11.5078 0.959821 10.5 2.14286 10.5H3.57143C4.75446 10.5 5.71429 11.5078 5.71429 12.75V20.25C5.71429 21.4922 4.75446 22.5 3.57143 22.5H2.14286C0.959821 22.5 0 21.4922 0 20.25V12.75ZM16.4286 4.5H17.8571C19.0402 4.5 20 5.50781 20 6.75V20.25C20 21.4922 19.0402 22.5 17.8571 22.5H16.4286C15.2455 22.5 14.2857 21.4922 14.2857 20.25V6.75C14.2857 5.50781 15.2455 4.5 16.4286 4.5Z" fill="black"/>
</g>
</svg>
