<svg width="25" height="20" viewBox="0 0 25 20" fill="none" xmlns="http://www.w3.org/2000/svg">
<path id="Vector-arrow-right-from-bracket-solid 1" d="M24.5422 11.0089C25.1526 10.4509 25.1526 9.54464 24.5422 8.98661L18.2919 3.27232C17.6815 2.71429 16.6903 2.71429 16.0799 3.27232C15.4695 3.83036 15.4695 4.73661 16.0799 5.29464L19.664 8.57143H9.37546C8.51116 8.57143 7.81288 9.20982 7.81288 10C7.81288 10.7902 8.51116 11.4286 9.37546 11.4286H19.664L16.0799 14.7054C15.4695 15.2634 15.4695 16.1696 16.0799 16.7277C16.6903 17.2857 17.6815 17.2857 18.2919 16.7277L24.5422 11.0134V11.0089ZM7.81288 2.85714C8.67718 2.85714 9.37546 2.21875 9.37546 1.42857C9.37546 0.638393 8.67718 0 7.81288 0H4.68773C2.09971 0 0 1.91964 0 4.28571V15.7143C0 18.0804 2.09971 20 4.68773 20H7.81288C8.67718 20 9.37546 19.3616 9.37546 18.5714C9.37546 17.7812 8.67718 17.1429 7.81288 17.1429H4.68773C3.82343 17.1429 3.12515 16.5045 3.12515 15.7143V4.28571C3.12515 3.49554 3.82343 2.85714 4.68773 2.85714H7.81288Z" fill="black"/>
</svg>
